<svg width="48" height="48" viewBox="0 0 48 48" fill="none" xmlns="http://www.w3.org/2000/svg">
<path fill-rule="evenodd" clip-rule="evenodd" d="M24.804 43.648L24 44L23.196 43.648C12.862 37.313 2 22.893 2 14.884C2.035 8.326 7.404 3.002 14 3.002C18.169 3.002 21.849 5.13 24 8.351C26.151 5.13 29.831 3.002 34 3.002C40.596 3.002 45.965 8.326 46 14.884C46 22.893 35.138 37.313 24.804 43.648ZM34 4.993C30.646 4.993 27.531 6.66 25.665 9.453L24 11.946L22.335 9.452C20.469 6.66 17.354 4.993 14 4.993C8.516 4.993 4.029 9.435 4 14.884C4 21.948 14.234 35.692 24 41.801C33.766 35.692 44 21.949 44 14.894C43.971 9.435 39.484 4.993 34 4.993Z" fill="#FF0000"/>
</svg>
