<svg width="42" height="46" viewBox="0 0 42 46" fill="none" xmlns="http://www.w3.org/2000/svg">
<path fill-rule="evenodd" clip-rule="evenodd" d="M39.0046 19.2446V23.4282L34.153 25.521L31.3549 29.1447H30.6435C30.6435 29.1457 30.6449 29.1478 30.6449 29.1489V44.7593C30.6449 44.7635 30.6421 44.7666 30.6421 44.7708C30.6477 45.0351 30.5182 45.3015 30.2481 45.5034C29.9781 45.7053 29.6217 45.8021 29.2667 45.7979C29.2625 45.7979 29.2583 45.8 29.2528 45.8C28.8073 45.8 28.4272 45.6335 28.1739 45.3889L20.9 39.9513L13.6261 45.3889C13.3728 45.6335 12.9941 45.8 12.5472 45.8C12.5417 45.8 12.5375 45.7979 12.5333 45.7979C12.1783 45.8021 11.8219 45.7053 11.5519 45.5034C11.2832 45.3015 11.1523 45.0351 11.1579 44.7708C11.1579 44.7666 11.1551 44.7635 11.1551 44.7593V29.1489C11.1551 29.1478 11.1565 29.1457 11.1565 29.1447H10.4507L7.64974 25.521L2.79957 23.4282V19.2446L0 15.6209L2.79957 11.9961V7.80938L7.64974 5.71446L10.4507 2.09388H16.054L20.8986 0L25.7488 2.09388H31.3521L34.1503 5.71446L39.0018 7.80938V11.9951L41.8 15.6209L39.0046 19.2446ZM13.9394 29.1489V42.2814L19.7724 37.9209C19.8169 37.872 19.8462 37.8158 19.9046 37.771C20.1789 37.5671 20.5408 37.4724 20.9 37.4786C21.2592 37.4724 21.6211 37.5671 21.8954 37.771C21.9538 37.8158 21.9817 37.872 22.0276 37.9209L27.8606 42.2814V29.1489C27.8606 29.1478 27.862 29.1457 27.862 29.1447H25.7502L20.9 31.2396L16.0554 29.1447H13.938C13.938 29.1457 13.9394 29.1478 13.9394 29.1489ZM36.2134 12.5518V9.01035L32.1094 7.23804L29.7442 4.17527H25.0026L20.9028 2.40505L16.8058 4.17527H12.0642L9.69616 7.237L5.59078 9.00931V12.5518L3.22277 15.6209L5.59078 18.6878V22.2262L9.69616 23.9974L12.0642 27.0623H16.8044L20.9014 28.8325L25.0012 27.0623H29.7414L32.1066 23.9974L36.212 22.2262V18.6888L38.5786 15.6209L36.2134 12.5518Z" fill="#23870A"/>
</svg>
